<svg height="512pt" viewBox="0 0 512 512.01235" width="512pt" xmlns="http://www.w3.org/2000/svg"><path d="m243.0625 72.066406c-5.347656-8.585937-5.347656-19.460937 0-28.046875 2.503906-3.921875 1.40625-9.132812-2.472656-11.707031s-9.105469-1.566406-11.746094 2.269531c-9.132812 14.308594-9.132812 32.621094 0 46.933594 1.671875 2.589844 4.609375 4.082031 7.6875 3.894531 3.078125-.183594 5.816406-2.015625 7.164062-4.792968 1.347657-2.773438 1.089844-6.058594-.667968-8.59375zm0 0"/><path d="m136.539062 401.078125c0-14.691406-9.402343-27.734375-23.339843-32.378906-13.9375-4.648438-29.285157.144531-38.101563 11.898437-2.824218 3.773438-2.0625 9.121094 1.707032 11.949219 3.773437 2.828125 9.121093 2.0625 11.949218-1.707031 4.8125-6.421875 13.453125-8.621094 20.75-5.28125 7.300782 3.339844 11.285156 11.3125 9.578125 19.152344-1.707031 7.84375-8.648437 13.433593-16.675781 13.433593h-8.535156c-4.710938 0-8.53125 3.820313-8.53125 8.535157 0 4.710937 3.820312 8.53125 8.53125 8.53125h8.535156c7.730469-.007813 14.5 5.179687 16.503906 12.640624 2.003906 7.464844-1.257812 15.347657-7.953125 19.210938-6.691406 3.863281-15.148437 2.742188-20.609375-2.726562-2.140625-2.21875-5.3125-3.105469-8.296875-2.328126-2.984375.78125-5.3125 3.113282-6.09375 6.097657-.78125 2.980469.105469 6.15625 2.324219 8.296875 8.773438 8.910156 21.726562 12.296875 33.738281 8.820312 12.011719-3.476562 21.152344-13.257812 23.808594-25.480468 2.65625-12.21875-1.597656-24.914063-11.082031-33.0625 7.457031-6.417969 11.761718-15.761719 11.792968-25.601563zm0 0"/><path d="m281.605469 469.34375h-17.066407v-93.863281c0-3.453125-2.078124-6.5625-5.265624-7.882813-3.191407-1.320312-6.859376-.589844-9.300782 1.847656l-25.597656 25.601563c-3.234375 3.347656-3.191406 8.667969.101562 11.960937 3.292969 3.292969 8.613282 3.339844 11.960938.105469l11.035156-11.035156v73.265625h-17.066406c-4.714844 0-8.535156 3.824219-8.535156 8.535156 0 4.714844 3.820312 8.535156 8.535156 8.535156h51.199219c4.714843 0 8.535156-3.820312 8.535156-8.535156 0-4.710937-3.820313-8.535156-8.535156-8.535156zm0 0"/><path d="m405.433594 428.300781c-6.039063 4.007813-11.664063 8.609375-16.785156 13.738281-8.929688 9.753907-13.660157 22.625-13.175782 35.839844 0 4.714844 3.820313 8.535156 8.535156 8.535156h51.199219c4.710938 0 8.53125-3.820312 8.53125-8.535156 0-4.710937-3.820312-8.535156-8.53125-8.535156h-41.8125c.992188-5.824219 3.660157-11.234375 7.679688-15.570312 4.367187-4.3125 9.140625-8.1875 14.257812-11.574219 6.550781-4.300781 12.578125-9.351563 17.960938-15.050781 6.589843-7.097657 10.3125-16.386719 10.445312-26.070313 0-18.851563-15.28125-34.132813-34.132812-34.132813-18.851563 0-34.132813 15.28125-34.132813 34.132813 0 4.714844 3.820313 8.535156 8.535156 8.535156 4.710938 0 8.53125-3.820312 8.53125-8.535156 0-9.425781 7.640626-17.066406 17.066407-17.066406s17.066406 7.640625 17.066406 17.066406c-.1875 5.5-2.371094 10.742187-6.144531 14.746094-4.546875 4.710937-9.613282 8.894531-15.09375 12.476562zm0 0"/><path d="m17.074219 358.414062v145.066407c0 4.710937 3.820312 8.53125 8.53125 8.53125h460.800781c4.710938 0 8.535156-3.820313 8.535156-8.53125v-187.734375c9.421875 0 17.066406-7.640625 17.066406-17.066406v-17.066407c0-9.425781-7.644531-17.066406-17.066406-17.066406h-147.441406c1.535156-2.582031 2.355469-5.53125 2.371094-8.535156v-17.066407c0-9.425781-7.640625-17.066406-17.066406-17.066406h-8.53125v-6.828125c0-15.078125-12.226563-27.304687-27.308594-27.304687h-9.136719c-2.84375-17.980469 6.296875-43.972656 15.289063-69.265625 1.070312-2.988281 2.132812-5.980469 3.183593-8.976563 22.792969-16 58.421875-49.492187 58.421875-81.921875.429688-7.847656-2.566406-15.5-8.210937-20.972656-5.058594-4.445313-11.617188-6.800781-18.347657-6.5976562-9.765624.1484372-19.132812 3.9179692-26.28125 10.5742192-.308593-.46875-.546874-.949219-.855468-1.410157-3.972656-5.570312-10.398438-8.878906-17.242188-8.882812h-75.554687c-6.839844.003906-13.257813 3.308593-17.230469 8.875-.324219.453125-.5625.929687-.851562 1.390625-7.160157-6.648438-16.53125-10.40625-26.300782-10.5468752-6.730468-.2031248-13.289062 2.1601562-18.347656 6.6054692-5.640625 5.46875-8.632812 13.113281-8.207031 20.957031 0 32.425781 35.625 65.929687 58.417969 81.921875 1.058593 2.996094 2.117187 5.988281 3.183593 8.976562 8.992188 25.292969 18.132813 51.285156 15.289063 69.265625h-9.136719c-7.246094 0-14.191406 2.878907-19.3125 8-5.121094 5.121094-7.996094 12.070313-7.996094 19.3125v6.828125h-8.53125c-9.425781 0-17.066406 7.640625-17.066406 17.066406v17.066407c.015625 6.070312 3.269531 11.671875 8.53125 14.695312v36.503907h-153.597656c-9.425781 0-17.0664065 7.640624-17.0664065 17.066406v17.066406c0 9.425781 7.6406255 17.070312 17.0664065 17.070312zm17.066406 0h136.53125v136.53125h-136.53125zm153.597656-8.535156v-76.800781h136.535157v221.867187h-136.535157zm290.132813 145.066406h-136.53125v-179.199218h136.53125zm17.070312-196.265624h-153.601562v-17.066407h153.601562zm-174.082031-271.105469c0-4.394531 8.710937-10.496094 17.304687-10.496094 2.457032-.132813 4.882813.621094 6.828126 2.125 2.015624 2.300781 2.980468 5.335937 2.671874 8.378906 0 17.066407-15.363281 36.90625-31.90625 52.300781 5.023438-15.746093 6.5-32.414062 4.316407-48.800781.511719-1.097656.777343-2.296875.785156-3.507812zm-156.5 0c-.3125-3.042969.65625-6.078125 2.667969-8.378907 1.949218-1.503906 4.371094-2.261718 6.828125-2.125 8.585937.007813 17.296875 6.109376 17.296875 10.503907.011718 1.207031.28125 2.398437.792968 3.492187-2.183593 16.390625-.703124 33.058594 4.328126 48.808594-16.574219-15.394531-31.914063-35.25-31.914063-52.300781zm60.585937 85.1875c-12.5625-35.328125-25.601562-71.859375-10.070312-93.695313.777344-1.0625 2.011719-1.699218 3.328125-1.707031h75.554687c1.316407.011719 2.546876.644531 3.320313 1.707031 15.496094 21.828125 2.5 58.367188-10.0625 93.707032-9.710937 27.304687-18.96875 53.339843-16.578125 74.980468h-28.886719c2.390625-21.648437-6.878906-47.675781-16.582031-74.992187zm-20.140624 102.289062c0-5.652343 4.585937-10.238281 10.242187-10.238281h81.917969c5.65625 0 10.242187 4.585938 10.242187 10.238281v6.828125h-102.402343zm-25.597657 23.894531h153.597657v17.066407h-153.597657zm-162.132812 85.332032h153.597656v17.066406h-153.597656zm0 0"/><path d="m230.40625 298.679688c0-4.714844-3.820312-8.535157-8.535156-8.535157h-8.53125c-4.714844 0-8.535156 3.820313-8.535156 8.535157 0 4.710937 3.820312 8.53125 8.535156 8.53125h8.53125c4.714844 0 8.535156-3.820313 8.535156-8.53125zm0 0"/><path d="m298.671875 290.144531h-42.664063c-4.714843 0-8.535156 3.820313-8.535156 8.535157 0 4.710937 3.820313 8.53125 8.535156 8.53125h42.664063c4.714844 0 8.535156-3.820313 8.535156-8.53125 0-4.714844-3.820312-8.535157-8.535156-8.535157zm0 0"/></svg>